<?xml version="1.0" encoding="UTF-8"?>
<svg width="230" height="61" viewBox="0 0 230 61" version="1.1" xmlns="http://www.w3.org/2000/svg" xmlns:xlink="http://www.w3.org/1999/xlink">
    <title>Group 10</title>
    <defs>
        <polygon id="path-1" points="0 0 61.0592123 0 61.0592123 61 0 61"></polygon>
    </defs>
    <g id="Symbols" stroke="none" stroke-width="1" fill="none" fill-rule="evenodd">
        <g id="Desktop---Header-1-transparent-rätt" transform="translate(-19.000000, -16.000000)">
            <g id="Group-10" transform="translate(19.000000, 16.000000)">
                <polygon id="Fill-1" fill="#034EA2" points="32.2094632 22.0137369 33.9321718 22.0137369 33.9321718 20.2902645 32.2094632 20.2902645"></polygon>
                <polygon id="Fill-2" fill="#034EA2" points="32.2095172 23.6941224 33.9322258 23.6941224 33.9322258 37.2640342 32.2095172 37.2640342"></polygon>
                <path d="M37.2901026,20.2904267 L39.0128112,20.2904267 L39.0128112,23.6935818 L45.7728753,23.6935818 L45.7728753,25.4170541 L39.0128112,25.4170541 L39.0128112,33.8603385 C39.0128112,34.8507405 39.744476,35.5832703 40.6917496,35.5832703 L45.7728753,35.5832703 L45.7728753,37.2634936 L40.6917496,37.2634936 C38.9258112,37.2634936 37.2901026,35.8422236 37.2901026,33.8603385 L37.2901026,25.4170541 L34.7498099,25.4170541 L34.7498099,23.6935818 L37.2901026,23.6935818 L37.2901026,20.2904267 Z" id="Fill-3" fill="#034EA2"></path>
                <path d="M17.2672357,30.5001081 L30.5290658,30.5001081 C30.5290658,28.9923401 30.4436869,27.8721913 30.2713079,27.1402021 C30.0983886,26.4082129 29.7974009,25.7616404 29.3667238,25.2010254 C28.8074379,24.5549936 28.1190029,24.1241255 27.2144188,23.8657128 C26.3530645,23.6500084 24.8886541,23.5213427 22.9076473,23.5213427 C20.883951,23.5213427 19.4633109,23.6500084 18.5592671,23.8657128 C17.6552234,24.1241255 16.966248,24.5549936 16.4485708,25.2010254 C15.9752042,25.7616404 15.6742165,26.4076723 15.5445271,27.1402021 C15.3721481,27.8721913 15.2862289,28.9923401 15.2435394,30.5001081 C15.2862289,31.9651677 15.3721481,33.0853166 15.5445271,33.8173058 C15.6742165,34.549295 15.9752042,35.1958674 16.4485708,35.7564825 C16.966248,36.4014331 17.6552234,36.8760908 18.5592671,37.0917951 C19.4633109,37.3502078 20.883951,37.4356246 22.9076473,37.4356246 C24.8886541,37.4356246 26.3530645,37.3502078 27.2144188,37.0917951 C28.1190029,36.8760908 28.8074379,36.4014331 29.3667238,35.7564825 C29.712022,35.3256144 29.9697799,34.8077077 30.1426992,34.2908823 L28.1190029,34.2908823 C27.9893134,34.4638782 27.859624,34.6363336 27.6883258,34.8077077 C27.3003381,35.10991 26.7399714,35.3683228 26.0509961,35.4969885 C25.3193313,35.6267355 24.285598,35.6694439 22.9508771,35.6694439 C21.5729264,35.6694439 20.5402739,35.6267355 19.8512986,35.4969885 C19.118553,35.3683228 18.6019566,35.10991 18.2145092,34.8077077 C17.6979128,34.3768396 17.3969251,33.6448504 17.3099251,32.6544485 C17.2672357,31.9651677 17.2672357,31.1893889 17.2672357,30.5001081 M28.5923695,28.7766358 L17.2672357,28.7766358 C17.3099251,27.5278212 17.6119935,26.666085 18.2145092,26.1925085 C18.6019566,25.8475978 19.118553,25.6318935 19.8512986,25.5032277 C20.5402739,25.3734807 21.5729264,25.288064 22.9508771,25.288064 C24.285598,25.288064 25.3193313,25.3734807 26.0509961,25.5032277 C26.7399714,25.6318935 27.3003381,25.8475978 27.6883258,26.1925085 C28.2903011,26.666085 28.5923695,27.5278212 28.5923695,28.7766358" id="Fill-5" fill="#034EA2"></path>
                <g id="Group-9">
                    <mask id="mask-2" fill="white">
                        <use xlink:href="#path-1"></use>
                    </mask>
                    <g id="Clip-8"></g>
                    <path d="M30.5297682,61 C47.3656243,61 61.0592123,47.3441308 61.0592123,30.4997297 C61.0592123,13.6131608 47.3656243,0 30.5297682,0 C24.9747355,0 19.765001,1.50830859 15.2869313,4.09243586 L16.9658697,7.02147383 C20.9700324,4.69575929 25.5777916,3.40315505 30.5297682,3.40315505 C45.5143069,3.40315505 57.6570249,15.5080073 57.6570249,30.4997297 C57.6570249,45.4482031 45.5143069,57.6400939 30.5297682,57.6400939 C15.5452295,57.6400939 3.40251159,45.4482031 3.40251159,30.4997297 L-0.000216149134,30.4997297 C-0.000216149134,47.3441308 13.6939122,61 30.5297682,61" id="Fill-7" fill="#034EA2" mask="url(#mask-2)"></path>
                </g>
                <path d="M30.5297682,54.2365605 C39.3135287,54.2365605 46.9787173,49.4553844 51.0693397,42.346872 L48.1415997,40.6666486 C44.6102632,46.7404289 38.0652674,50.8334054 30.5297682,50.8334054 C19.2916344,50.8334054 10.2052652,41.7435485 10.2052652,30.5004325 C10.2052652,19.2562352 19.2916344,10.1242106 30.5297682,10.1242106 C38.0652674,10.1242106 44.6102632,14.2166464 48.1415997,20.2904267 L51.0693397,18.610744 C46.9787173,11.5027722 39.3135287,6.76430452 30.5297682,6.76430452 C17.4392363,6.76430452 6.80415858,17.3608481 6.80415858,30.5004325 C6.80415858,43.5956866 17.4392363,54.2365605 30.5297682,54.2365605" id="Fill-10" fill="#6BB745"></path>
                <path d="M226.826307,29.4232623 C227.256984,29.6389666 227.557971,29.9400877 227.73035,30.3709558 C227.902729,30.7585749 227.988649,31.3618983 227.988649,32.1798449 C227.988649,32.9988727 227.902729,33.6449045 227.77358,34.0757726 C227.600661,34.5498897 227.342903,34.8937191 226.955996,35.1094235 C226.438319,35.4543342 225.275977,35.6267896 223.38197,35.6267896 C221.659261,35.6267896 220.539609,35.4970426 220.066242,35.2386299 C219.247578,34.8510108 218.8169,33.8606089 218.8169,32.3523003 C218.8169,30.8018239 219.204888,29.8541304 219.936553,29.5092197 C220.539609,29.1648496 221.745181,29.0351026 223.597038,29.0351026 C225.190598,29.0351026 226.26594,29.1648496 226.826307,29.4232623 L226.826307,29.4232623 Z M227.988649,29.0351026 L227.902729,29.0351026 C227.687661,28.6912731 227.385592,28.3890708 226.998685,28.1733664 C226.653928,28.0019923 226.26594,27.8722453 225.836344,27.7868286 C225.361896,27.7424983 224.630231,27.69979 223.597038,27.69979 C222.348237,27.69979 221.400963,27.7424983 220.755218,27.8295369 C220.108932,27.9154943 219.548565,28.0447007 219.162199,28.2176966 C217.870167,28.8637285 217.223881,30.1979599 217.223881,32.2668835 C217.223881,33.2572854 217.353571,34.0330642 217.568639,34.6796366 C217.826937,35.2818788 218.213844,35.7992449 218.731521,36.1863234 C219.075199,36.4447361 219.635565,36.6171915 220.324541,36.7469384 C221.012976,36.8756042 222.002939,36.9193938 223.29497,36.9193938 C224.80261,36.9193938 225.879033,36.8328958 226.438319,36.7042301 C226.998685,36.5312341 227.472052,36.1863234 227.86004,35.7127469 L227.988649,35.7127469 C227.945959,36.6598999 227.902729,37.3064723 227.81627,37.694632 C227.73035,38.0395427 227.600661,38.3406638 227.385592,38.5990765 C227.127294,38.9439872 226.696617,39.1596916 226.050872,39.2883573 C225.405666,39.4181043 224.371933,39.4608127 222.951293,39.4608127 C221.314504,39.4608127 220.237541,39.3310657 219.720944,39.0299446 C219.463186,38.9001976 219.290267,38.7288235 219.204888,38.5131192 C219.117888,38.3406638 219.032509,38.0822511 218.989279,37.7373404 L217.482179,37.7373404 C217.482179,38.1682084 217.524869,38.5131192 217.568639,38.7288235 C217.611869,38.9439872 217.740478,39.2024 217.912857,39.4181043 C218.300844,39.9343892 218.86013,40.2798405 219.635565,40.4950042 C220.36723,40.6663783 221.529572,40.7961253 223.122591,40.7961253 C224.630231,40.7961253 225.749343,40.7107086 226.481549,40.62367 C227.169984,40.4950042 227.73035,40.3225489 228.118338,40.0203465 C228.764084,39.5905597 229.108301,38.9872362 229.28068,38.2547064 C229.409289,37.521636 229.496289,36.4020277 229.496289,34.8937191 L229.496289,27.8295369 L227.988649,27.8295369 L227.988649,29.0351026 Z M204.17712,37.2637639 L205.683679,37.2637639 L205.683679,32.9129153 C205.683679,32.0084708 205.727449,31.4051473 205.770139,31.059696 C205.856058,30.7158665 205.985747,30.3709558 206.200816,30.1125431 C206.545033,29.7243834 207.0184,29.4659707 207.664686,29.2935153 C208.310431,29.1221412 209.214475,29.0351026 210.376817,29.0351026 C211.411091,29.0351026 212.185445,29.0783516 212.703122,29.2080986 C213.219178,29.3373049 213.607166,29.5530093 213.865464,29.8541304 C214.080532,30.0692941 214.209141,30.4136642 214.296141,30.7585749 C214.338831,31.1467346 214.38152,31.7489768 214.38152,32.5680046 L214.38152,37.2637639 L215.88916,37.2637639 L215.88916,31.9214322 C215.88916,31.059696 215.803241,30.3709558 215.716781,29.9400877 C215.588173,29.4659707 215.372564,29.0783516 215.070496,28.7339815 C214.726818,28.3463624 214.209141,28.0879497 213.563936,27.9582027 C212.875501,27.7868286 211.884457,27.69979 210.549736,27.69979 C208.999407,27.69979 207.879754,27.8295369 207.233468,28.0447007 C206.587723,28.260405 206.114356,28.6485647 205.770139,29.2508069 L205.683679,29.2508069 L205.683679,27.8295369 L204.17712,27.8295369 L204.17712,37.2637639 Z M200.990001,25.4594922 L202.4971,25.4594922 L202.4971,23.6933115 L200.990001,23.6933115 L200.990001,25.4594922 Z M200.990001,37.2637639 L202.4971,37.2637639 L202.4971,27.8295369 L200.990001,27.8295369 L200.990001,37.2637639 Z M189.881556,37.2637639 L191.344886,37.2637639 L191.344886,32.9129153 C191.344886,31.2754004 191.603184,30.1979599 192.120321,29.7243834 C192.636917,29.2508069 193.799259,29.0351026 195.564657,29.0351026 C196.770229,29.0351026 197.545664,29.2075579 197.933652,29.5530093 C198.10495,29.7243834 198.23464,29.9400877 198.320018,30.1979599 C198.363248,30.5001622 198.407018,30.8883219 198.407018,31.4051473 L198.407018,32.0944281 L199.957348,32.0944281 L199.957348,31.1040262 C199.957348,29.8541304 199.61205,28.9923942 198.966304,28.4328604 C198.665317,28.1733664 198.277329,27.9582027 197.803962,27.8722453 C197.373285,27.7868286 196.68431,27.69979 195.737036,27.69979 C194.832993,27.69979 194.100247,27.7424983 193.66957,27.7868286 C193.196203,27.8722453 192.809296,27.9582027 192.507228,28.0879497 C192.033861,28.3463624 191.689644,28.6912731 191.474575,29.1221412 L191.344886,29.1221412 L191.344886,27.8295369 L189.881556,27.8295369 L189.881556,37.2637639 Z M176.833714,33.0415811 C176.833714,34.0330642 176.920173,34.7650534 177.048782,35.2818788 C177.178472,35.7992449 177.43677,36.1863234 177.737758,36.4885257 C178.125745,36.7896468 178.641801,37.0480596 179.288087,37.1778065 C179.933833,37.3064723 180.838417,37.3929703 182.000759,37.3929703 C183.465169,37.3929703 184.541592,37.2637639 185.144108,37.0907679 C185.789853,36.8756042 186.30753,36.4447361 186.651207,35.8424939 L186.737127,35.8424939 L186.737127,37.2637639 L188.244227,37.2637639 L188.244227,27.8295369 L186.737127,27.8295369 L186.737127,32.4820472 C186.737127,33.171328 186.737127,33.6881535 186.651207,34.0757726 C186.565829,34.4201427 186.436139,34.722345 186.22053,34.9807577 C185.919543,35.3683768 185.446176,35.6267896 184.79989,35.7992449 C184.196834,35.9711597 183.29279,36.0576576 182.173138,36.0576576 C181.311783,36.0576576 180.622808,36.013868 180.149441,35.9279107 C179.676075,35.8424939 179.288087,35.6694979 179.029789,35.4543342 C178.728801,35.1959215 178.556422,34.8937191 178.469422,34.5066407 C178.384043,34.1190216 178.340814,33.5156981 178.340814,32.610713 L178.340814,27.8295369 L176.833714,27.8295369 L176.833714,33.0415811 Z M167.576046,27.8295369 L165.250282,27.8295369 L165.250282,29.1221412 L167.576046,29.1221412 L167.576046,33.6881535 C167.576046,34.4201427 167.619276,34.9807577 167.704655,35.3683768 C167.747885,35.7127469 167.920264,36.0576576 168.092643,36.3160704 C168.39363,36.7042301 168.824308,36.9621022 169.384674,37.1350982 C169.94396,37.3064723 170.762085,37.3929703 171.796358,37.3929703 C172.786321,37.3929703 173.517986,37.3064723 174.078353,37.1350982 C174.637639,36.9193938 175.068316,36.6598999 175.326074,36.2290318 C175.541682,35.9279107 175.671372,35.6267896 175.714061,35.2386299 C175.799981,34.8510108 175.843751,34.3341853 175.843751,33.6021961 L175.843751,32.9988727 L174.336111,32.9988727 L174.336111,33.6021961 C174.336111,34.16173 174.336111,34.592598 174.293421,34.8077618 C174.250732,35.0661745 174.163732,35.2386299 174.078353,35.4116258 C173.905433,35.6694979 173.647676,35.8424939 173.345607,35.9279107 C173.044079,36.013868 172.570712,36.0576576 171.881737,36.0576576 C171.193302,36.0576576 170.632935,36.013868 170.246029,35.9279107 C169.90073,35.8424939 169.599743,35.6694979 169.427364,35.4543342 C169.254985,35.2386299 169.169065,35.0234661 169.126376,34.8510108 C169.126376,34.6353064 169.082606,34.0757726 169.082606,33.2140364 L169.082606,29.1221412 L175.671372,29.1221412 L175.671372,27.8295369 L169.082606,27.8295369 L169.082606,25.5027412 L167.576046,25.5027412 L167.576046,27.8295369 Z M162.53761,35.6694979 C162.064243,35.9279107 161.07428,36.0576576 159.523951,36.0576576 C157.586174,36.0576576 156.336832,35.9279107 155.777546,35.6267896 C155.389558,35.4543342 155.088571,35.1094235 154.916192,34.6353064 C154.701123,34.16173 154.615204,33.5151575 154.615204,32.6977516 C154.615204,31.8360154 154.701123,31.1467346 154.873502,30.6288279 C155.002111,30.1552515 155.260409,29.768173 155.605167,29.5530093 C156.121763,29.2075579 157.240876,29.0351026 158.920895,29.0351026 C160.686293,29.0351026 161.805945,29.1648496 162.365231,29.4659707 C162.925598,29.7243834 163.226585,30.3277068 163.226585,31.189443 L164.776915,31.189443 C164.776915,30.5861196 164.690996,30.1125431 164.561306,29.7243834 C164.432698,29.3805539 164.260319,29.0351026 164.00202,28.7766899 C163.614573,28.3890708 163.054206,28.0879497 162.322542,27.9582027 C161.547647,27.7868286 160.427995,27.69979 158.920895,27.69979 C157.240876,27.69979 156.035844,27.8295369 155.304179,28.0879497 C154.571434,28.3031134 154.012148,28.7766899 153.62416,29.4659707 C153.236172,30.1552515 153.021104,31.189443 153.021104,32.5680046 C153.021104,34.5498897 153.495551,35.8852023 154.400136,36.5744831 C154.830813,36.8756042 155.432788,37.0907679 156.208223,37.2205149 C156.983118,37.3064723 158.18923,37.3929703 159.824938,37.3929703 C161.03051,37.3929703 161.978324,37.3064723 162.58084,37.1778065 C163.226585,37.0053512 163.699952,36.7469384 164.04525,36.3587787 C164.561306,35.8424939 164.819605,35.0234661 164.862834,33.8606089 L163.313585,33.8606089 C163.313585,34.7650534 163.054206,35.3683768 162.53761,35.6694979 L162.53761,35.6694979 Z M149.233091,33.2999938 C149.791836,33.5151575 150.093364,33.9033172 150.093364,34.5066407 C150.093364,35.1532131 149.835066,35.5402916 149.318469,35.7554553 C148.802413,35.9711597 147.76814,36.0576576 146.175121,36.0576576 C144.021735,36.0576576 142.773474,35.9711597 142.386026,35.7992449 C141.91266,35.5840812 141.697051,35.1532131 141.697051,34.5498897 C141.697051,33.9460256 141.86943,33.5151575 142.256337,33.2572854 C142.471946,33.171328 142.816703,33.0842894 143.29007,33.0415811 C143.806667,32.9988727 144.668021,32.9561643 145.873052,32.9561643 C147.553071,32.9561643 148.672724,33.0842894 149.233091,33.2999938 L149.233091,33.2999938 Z M142.083958,30.5434112 C142.083958,29.8968387 142.299026,29.5092197 142.773474,29.2935153 C143.247381,29.1221412 144.280033,29.0351026 145.916822,29.0351026 C147.122394,29.0351026 148.026438,29.0783516 148.543034,29.2075579 C149.103401,29.2935153 149.490848,29.5092197 149.749147,29.8541304 C150.050134,30.1979599 150.222513,30.8018239 150.222513,31.6635601 L150.222513,32.6534214 L150.093364,32.6534214 C149.749147,32.2236345 149.27578,31.9214322 148.672724,31.8360154 C148.113438,31.7062684 146.821407,31.6635601 144.883089,31.6635601 C143.031772,31.6635601 141.86943,31.7489768 141.352293,31.9646812 C140.921616,32.1798449 140.577398,32.4382576 140.36233,32.8264173 C140.189951,33.2572854 140.104032,33.8173599 140.104032,34.5066407 C140.104032,35.1094235 140.146721,35.5840812 140.27533,35.9279107 C140.40502,36.2290318 140.663318,36.5312341 140.964305,36.7896468 C141.309063,37.0053512 141.78297,37.1778065 142.428716,37.2637639 C143.075002,37.3491807 144.237344,37.3929703 145.873052,37.3929703 C147.337463,37.3929703 148.284736,37.3064723 148.802413,37.1778065 C149.318469,37.0053512 149.791836,36.6598999 150.136054,36.143615 L150.222513,36.143615 L150.222513,37.2637639 L151.686383,37.2637639 L151.686383,32.3095919 C151.686383,31.189443 151.643153,30.3709558 151.514545,29.9400877 C151.428085,29.4659707 151.212476,29.0783516 150.911489,28.7766899 C150.480811,28.3458218 149.921525,28.0879497 149.233091,27.9149537 C148.543034,27.7868286 147.380692,27.69979 145.787673,27.69979 C143.763977,27.69979 142.343337,27.8722453 141.610591,28.260405 C140.878386,28.6042345 140.490939,29.2935153 140.490939,30.2422901 C140.490939,30.3709558 140.490939,30.5001622 140.533628,30.6731582 L142.083958,30.6731582 L142.083958,30.5434112 Z M133.342887,29.1221412 L133.342887,37.2637639 L134.807297,37.2637639 L134.807297,29.1221412 L139.586355,29.1221412 L139.586355,27.8295369 L134.849987,27.8295369 C134.893217,27.0532175 134.935906,26.5369327 134.979676,26.27852 C135.022906,26.0201072 135.151515,25.7616945 135.280664,25.5892392 C135.496273,25.3740754 135.754571,25.2443284 136.142018,25.1583711 C136.530006,25.0729543 137.131981,25.0286241 137.993336,24.9859157 L139.586355,24.9432073 L139.586355,23.6506031 L137.864727,23.7371011 C136.701304,23.7803501 135.841031,23.8657668 135.323894,23.9955138 C134.764608,24.1668879 134.333931,24.4263819 134.031862,24.770752 C133.773564,25.0729543 133.602266,25.4167838 133.515266,25.8476519 C133.429347,26.2358116 133.342887,26.8818434 133.342887,27.8295369 L131.233271,27.8295369 L131.233271,29.1221412 L133.342887,29.1221412 Z M119.133783,33.0415811 C119.133783,34.0330642 119.219703,34.7650534 119.348852,35.2818788 C119.47746,35.7992449 119.735759,36.1863234 120.081057,36.4885257 C120.425815,36.7896468 120.942411,37.0480596 121.588157,37.1778065 C122.234443,37.3064723 123.181176,37.3929703 124.300828,37.3929703 C125.764158,37.3929703 126.841121,37.2637639 127.444177,37.0907679 C128.089923,36.8756042 128.606519,36.4447361 128.994507,35.8424939 L129.079886,35.8424939 L129.079886,37.2637639 L130.544296,37.2637639 L130.544296,27.8295369 L129.079886,27.8295369 L129.079886,32.4820472 C129.079886,33.171328 129.037196,33.6881535 128.951277,34.0757726 C128.864817,34.4201427 128.736209,34.722345 128.5206,34.9807577 C128.218531,35.3683768 127.745165,35.6267896 127.098879,35.7992449 C126.496904,35.9711597 125.59286,36.0576576 124.473207,36.0576576 C123.611853,36.0576576 122.922878,36.013868 122.449511,35.9279107 C121.975064,35.8424939 121.588157,35.6694979 121.329858,35.4543342 C121.02779,35.1959215 120.855411,34.8937191 120.769492,34.5066407 C120.684113,34.1190216 120.639802,33.5151575 120.639802,32.610713 L120.639802,27.8295369 L119.133783,27.8295369 L119.133783,33.0415811 Z M105.957332,37.2632233 L107.464972,37.2632233 L107.464972,32.9129153 C107.464972,32.0084708 107.507662,31.4051473 107.550351,31.059696 C107.63627,30.7158665 107.76596,30.3709558 108.024258,30.1125431 C108.325246,29.7243834 108.798612,29.4659707 109.444898,29.2935153 C110.090644,29.1221412 110.994688,29.0351026 112.15703,29.0351026 C113.191303,29.0351026 113.966738,29.0783516 114.483335,29.2075579 C114.999391,29.3373049 115.387378,29.5530093 115.645677,29.8541304 C115.860745,30.0692941 115.990434,30.4136642 116.076354,30.7585749 C116.119043,31.1467346 116.161733,31.7489768 116.161733,32.5680046 L116.161733,37.2632233 L117.669373,37.2632233 L117.669373,31.9214322 C117.669373,31.059696 117.583454,30.3709558 117.496994,29.9400877 C117.368385,29.4659707 117.152776,29.0783516 116.850708,28.7339815 C116.507031,28.3458218 115.990434,28.0879497 115.344689,27.9582027 C114.698403,27.7862879 113.66467,27.69979 112.329949,27.69979 C110.779619,27.69979 109.659967,27.8295369 109.014221,28.0447007 C108.367935,28.260405 107.894569,28.6480241 107.550351,29.2508069 L107.464972,29.2508069 L107.464972,27.8295369 L105.957332,27.8295369 L105.957332,37.2632233 Z M101.952629,33.2999938 C102.555685,33.5151575 102.813983,33.9033172 102.813983,34.5066407 C102.813983,35.1532131 102.555685,35.5402916 102.038548,35.7554553 C101.565182,35.9711597 100.488219,36.0576576 98.9811188,36.0576576 C96.785584,36.0576576 95.5367823,35.9711597 95.1487946,35.7992449 C94.675428,35.5840812 94.4598193,35.1532131 94.4598193,34.5498897 C94.4598193,33.9460256 94.6321982,33.5151575 95.0201859,33.2572854 C95.2352543,33.171328 95.5794718,33.0842894 96.0966086,33.0415811 C96.5705156,32.9988727 97.4318699,32.9556237 98.6369013,32.9556237 C100.27315,32.9556237 101.392262,33.0842894 101.952629,33.2999938 L101.952629,33.2999938 Z M94.847807,30.5434112 C94.847807,29.8968387 95.0628754,29.5092197 95.5367823,29.2935153 C96.0101489,29.1221412 97.0438822,29.0351026 98.6801311,29.0351026 C99.8862433,29.0351026 100.746517,29.0783516 101.264194,29.2075579 C101.82294,29.2935153 102.210927,29.5092197 102.469225,29.8541304 C102.770213,30.1979599 102.942592,30.8018239 102.942592,31.6630195 L102.942592,32.6534214 L102.813983,32.6534214 C102.469225,32.2236345 101.995859,31.9214322 101.435492,31.8360154 C100.832976,31.7062684 99.5841749,31.6630195 97.6901681,31.6630195 C95.83777,31.6630195 94.6321982,31.7489768 94.1588316,31.9646812 C93.685465,32.1798449 93.3401668,32.4382576 93.1677878,32.8264173 C92.9527194,33.2572854 92.8668002,33.8173599 92.8668002,34.5066407 C92.8668002,35.1094235 92.9094896,35.5840812 93.0391791,35.9279107 C93.1677878,36.2290318 93.4271668,36.5312341 93.7281545,36.7896468 C94.072372,37.0053512 94.5468193,37.1778065 95.1914841,37.2632233 C95.83777,37.3491807 97.0011927,37.3929703 98.6369013,37.3929703 C100.057541,37.3929703 101.005896,37.3064723 101.565182,37.1778065 C102.081238,37.0053512 102.511915,36.6598999 102.899903,36.143615 L102.942592,36.143615 L102.942592,37.2632233 L104.407002,37.2632233 L104.407002,32.3095919 C104.407002,31.189443 104.364313,30.3709558 104.277313,29.9400877 C104.149245,29.4659707 103.933636,29.0783516 103.631567,28.7766899 C103.20089,28.3458218 102.684294,28.0879497 101.952629,27.9149537 C101.264194,27.7862879 100.100771,27.69979 98.5515224,27.69979 C96.5267454,27.69979 95.1061052,27.8722453 94.3744404,28.260405 C93.6422352,28.6042345 93.2547879,29.2935153 93.2547879,30.2422901 C93.2547879,30.3709558 93.2547879,30.5001622 93.2974773,30.6731582 L94.847807,30.6731582 L94.847807,30.5434112 Z M69.5286378,37.2632233 L71.3372657,37.2632233 L71.3372657,25.3740754 L72.1121603,25.3740754 L79.7762682,37.2632233 L81.2406786,37.2632233 L88.8194076,25.3740754 L89.5510724,25.3740754 L89.5510724,37.2632233 L91.3597003,37.2632233 L91.3597003,23.6933115 L87.7424446,23.6933115 L80.5090138,35.1959215 L73.1458936,23.6933115 L69.5286378,23.6933115 L69.5286378,37.2632233 Z" id="Fill-12" fill="#034EA2"></path>
            </g>
        </g>
    </g>
</svg>