<?xml version="1.0" standalone="no"?>
<!DOCTYPE svg PUBLIC "-//W3C//DTD SVG 20010904//EN"
 "http://www.w3.org/TR/2001/REC-SVG-20010904/DTD/svg10.dtd">
<svg version="1.0" xmlns="http://www.w3.org/2000/svg"
 width="60.000000pt" height="85.000000pt" viewBox="0 0 60.000000 85.000000"
 preserveAspectRatio="xMidYMid meet">

<g transform="translate(0.000000,85.000000) scale(0.100000,-0.100000)"
fill="#E5470E" stroke="none">
<path d="M215 818 c-59 -46 -64 -138 -10 -174 21 -14 25 -24 25 -69 0 -61 -13
-71 -75 -59 -54 10 -79 -16 -70 -74 8 -53 -11 -87 -55 -97 -27 -6 -30 -10 -30
-46 0 -36 4 -41 33 -54 45 -19 63 -59 42 -91 -18 -28 -8 -55 30 -80 22 -14 28
-15 48 -2 33 22 74 5 92 -38 13 -31 18 -34 55 -34 37 0 42 3 55 34 17 41 34
48 94 40 39 -5 49 -3 65 15 15 16 17 29 12 64 -9 57 -1 75 40 92 31 13 34 18
34 55 0 37 -3 42 -34 55 -41 17 -49 35 -40 92 10 67 -32 102 -86 73 -13 -7
-27 -6 -44 2 -23 10 -26 17 -26 59 0 38 4 51 20 59 31 16 53 67 46 105 -7 38
-65 95 -96 95 -15 0 -19 -8 -22 -47 -2 -35 -7 -48 -18 -48 -11 0 -16 13 -18
48 -4 55 -21 61 -67 25z m56 -107 c20 -7 38 -7 59 0 26 10 30 16 30 47 l1 37
19 -24 c11 -13 20 -34 20 -48 0 -24 -40 -73 -59 -73 -7 0 -12 -77 -13 -217
l-3 -218 -25 0 -25 0 -3 217 c-2 206 -3 217 -22 223 -44 14 -58 84 -26 124 9
11 12 7 14 -22 3 -29 8 -37 33 -46z m-70 -327 c-53 -60 -40 -154 27 -196 63
-39 149 -19 186 42 9 16 16 49 16 74 0 36 -6 52 -30 79 -20 23 -30 45 -30 66
0 31 1 32 34 26 19 -4 43 -2 55 4 24 13 28 2 11 -29 -15 -28 32 -128 65 -136
32 -8 32 -20 0 -28 -41 -10 -85 -132 -55 -151 21 -13 -1 -23 -28 -13 -42 16
-121 -16 -136 -54 -13 -35 -22 -36 -30 -3 -10 41 -132 85 -151 55 -13 -21 -23
1 -13 28 16 42 -16 121 -54 136 -34 13 -36 22 -3 30 32 8 69 87 61 133 -4 31
-4 31 29 26 18 -3 41 -1 51 5 17 10 19 7 22 -24 3 -27 -3 -43 -27 -70z m27
-111 l-4 -28 -8 28 c-5 15 -5 39 0 55 l8 27 4 -27 c2 -16 2 -40 0 -55z m162
27 c0 -21 -4 -42 -10 -45 -6 -4 -10 13 -10 45 0 32 4 49 10 45 6 -3 10 -24 10
-45z"/>
</g>
</svg>
